Okay, here is the 2Mbps for those who want a smaller download file with some quality loss.

Enjoy.

General
Complete name                    : J:FILESStar Trek (2013) Into Darkness 720p 2Mbps CAM MUPStar Trek (2013) Into Darkness - Movie 720p 2Mbps CAM by MUP AVC MP4.mp4
Format                           : MPEG-4
Format profile                   : Base Media / Version 2
Codec ID                         : mp42
File size                        : 1.78 GiB
Duration                         : 2h 7mn
Overall bit rate                 : 2 008 Kbps
Encoded date                     : UTC 2013-05-26 06:12:35
Tagged date                      : UTC 2013-05-26 06:12:35
Cover                            : Yes

Video
ID                               : 2
Format                           : AVC
Format/Info                      : Advanced Video Codec
Format profile                   : Main@L4.0
Format settings, CABAC           : Yes
Format settings, ReFrames        : 2 frames
Format settings, GOP             : M=2, N=15
Codec ID                         : avc1
Codec ID/Info                    : Advanced Video Coding
Duration                         : 2h 7mn
Bit rate mode                    : Variable
Bit rate                         : 1 871 Kbps
Maximum bit rate                 : 2 000 Kbps
Width                            : 1 280 pixels
Height                           : 720 pixels
Display aspect ratio             : 16:9
Frame rate mode                  : Constant
Frame rate                       : 29.970 fps
Color space                      : YUV
Chroma subsampling               : 4:2:0
Bit depth                        : 8 bits
Scan type                        : Progressive
Bits/(Pixel*Frame)               : 0.068
Stream size                      : 1.66 GiB (93%)
Language                         : English
Encoded date                     : UTC 2013-05-26 06:12:35
Tagged date                      : UTC 2013-05-26 06:12:35

Audio
ID                               : 1
Format                           : AAC
Format/Info                      : Advanced Audio Codec
Format profile                   : LC
Codec ID                         : 40
Duration                         : 2h 7mn
Bit rate mode                    : Constant
Bit rate                         : 128 Kbps
Channel(s)                       : 2 channels
Channel positions                : Front: L R
Sampling rate                    : 48.0 KHz
Compression mode                 : Lossy
Stream size                      : 116 MiB (6%)
Language                         : English
Encoded date                     : UTC 2013-05-26 06:12:35
Tagged date                      : UTC 2013-05-26 06:12:35